<?xml version="1.0" encoding="utf-8"?>
<!-- Generator: Adobe Illustrator 16.0.0, SVG Export Plug-In . SVG Version: 6.00 Build 0)  -->
<!DOCTYPE svg PUBLIC "-//W3C//DTD SVG 1.1//EN" "http://www.w3.org/Graphics/SVG/1.1/DTD/svg11.dtd">
<svg version="1.1" id="Layer_1" xmlns="http://www.w3.org/2000/svg" xmlns:xlink="http://www.w3.org/1999/xlink" x="0px" y="0px"
	 viewBox="0 0 1074 256" enable-background="new 0 0 1074 256" xml:space="preserve">
<g>
	<defs>
		<rect id="SVGID_1_" width="1074" height="256"/>
	</defs>
	<clipPath id="SVGID_2_">
		<use xlink:href="#SVGID_1_"  overflow="visible"/>
	</clipPath>
	<g clip-path="url(#SVGID_2_)">
		<defs>
			<rect id="SVGID_3_" width="1074" height="256"/>
		</defs>
		<clipPath id="SVGID_4_">
			<use xlink:href="#SVGID_3_"  overflow="visible"/>
		</clipPath>
		<g opacity="0.54" clip-path="url(#SVGID_4_)">
			<g>
				<defs>
					<rect id="SVGID_5_" x="507.536" y="68.348" width="502.273" height="93.7"/>
				</defs>
				<clipPath id="SVGID_6_">
					<use xlink:href="#SVGID_5_"  overflow="visible"/>
				</clipPath>
				<path clip-path="url(#SVGID_6_)" d="M542.098,68.347h13.312L589.972,160h-13.056l-8.833-24.833h-38.53L520.593,160h-13.057
					L542.098,68.347z M563.986,124.158L549.01,82.812h-0.512l-14.976,41.346H563.986z"/>
				<path clip-path="url(#SVGID_6_)" d="M591.248,128.639c0-19.201,13.953-33.41,29.826-33.41c9.983,0,17.792,4.993,21.377,10.753
					h0.512l-0.512-8.705V68.348h11.775V160h-11.264v-8.704h-0.512c-3.585,5.76-11.394,10.752-21.377,10.752
					C605.201,162.048,591.248,147.84,591.248,128.639 M642.963,128.639c0-14.337-9.473-22.657-19.969-22.657
					c-10.497,0-19.97,8.576-19.97,22.657s9.473,22.657,19.97,22.657C633.49,151.296,642.963,142.975,642.963,128.639"/>
				<polygon clip-path="url(#SVGID_6_)" points="750.995,160 738.962,160 719.249,99.581 718.737,99.581 699.024,160 686.992,160 
					661.518,68.348 673.807,68.348 693.136,140.415 693.648,140.415 713.489,80.636 724.497,80.636 744.339,140.415 744.85,140.415 
					763.156,68.348 775.444,68.348 				"/>
				<path clip-path="url(#SVGID_6_)" d="M837.265,128.639c0,19.073-13.439,33.409-32.257,33.409s-32.258-14.336-32.258-33.409
					c0-19.073,13.44-33.41,32.258-33.41S837.265,109.566,837.265,128.639 M825.488,128.639c0-14.337-9.983-22.657-20.48-22.657
					s-20.481,8.32-20.481,22.657c0,14.336,9.984,22.657,20.481,22.657S825.488,142.975,825.488,128.639"/>
				<path clip-path="url(#SVGID_6_)" d="M846.734,160V97.277h11.265v10.241h0.512c2.56-7.169,11.648-11.777,18.177-11.777
					c3.84,0,6.4,0.512,8.833,1.536l-4.48,11.009c-1.664-0.64-3.713-0.896-6.272-0.896c-8.064,0-16.257,6.784-16.257,18.304V160
					H846.734z"/>
				<path clip-path="url(#SVGID_6_)" d="M887.053,128.639c0-19.201,13.953-33.41,29.826-33.41c9.983,0,17.792,4.993,21.377,10.753
					h0.512l-0.512-8.705V68.348h11.775V160h-11.264v-8.704h-0.512c-3.585,5.76-11.394,10.752-21.377,10.752
					C901.006,162.048,887.053,147.84,887.053,128.639 M938.768,128.639c0-14.337-9.473-22.657-19.969-22.657
					c-10.497,0-19.97,8.576-19.97,22.657s9.473,22.657,19.97,22.657C929.295,151.296,938.768,142.975,938.768,128.639"/>
				<path clip-path="url(#SVGID_6_)" d="M957.707,144.127l10.497-4.352c3.328,7.936,9.472,11.776,17.023,11.776
					c7.298,0,12.546-3.585,12.546-8.833c0-3.199-1.921-6.655-8.576-8.319l-12.674-3.073c-5.76-1.408-16.768-6.4-16.768-17.408
					c0-11.393,11.776-18.689,24.833-18.689c10.88,0,20.353,4.992,24.192,14.593l-10.24,4.224c-2.432-5.888-8.191-8.321-14.336-8.321
					c-6.656,0-12.417,2.944-12.417,8.065c0,3.968,3.328,6.144,8.319,7.296l12.418,2.944c12.416,2.944,17.28,10.625,17.28,18.305
					c0,11.137-9.984,19.713-24.705,19.713C969.996,162.048,961.42,153.087,957.707,144.127"/>
			</g>
		</g>
		<g clip-path="url(#SVGID_4_)">
			<defs>
				<rect id="SVGID_7_" x="64" y="57" width="416" height="136"/>
			</defs>
			<clipPath id="SVGID_8_">
				<use xlink:href="#SVGID_7_"  overflow="visible"/>
			</clipPath>
			<path clip-path="url(#SVGID_8_)" fill="#4285F4" d="M64.723,109.565c0-28.929,24.321-52.482,53.251-52.482
				c16.001,0,27.394,6.272,35.97,14.464L143.831,81.66c-6.144-5.761-14.464-10.241-25.857-10.241
				c-21.121,0-37.634,17.025-37.634,38.146s16.513,38.146,37.634,38.146c13.696,0,21.505-5.504,26.497-10.496
				c4.097-4.097,6.784-9.984,7.809-18.048h-34.306V104.83h48.258c0.512,2.56,0.768,5.632,0.768,8.961
				c0,10.752-2.944,24.065-12.417,33.537c-9.215,9.601-20.993,14.721-36.609,14.721C89.044,162.048,64.723,138.495,64.723,109.565"
				/>
			<path clip-path="url(#SVGID_8_)" fill="#EA4335" d="M206.001,94.461c-18.689,0-33.922,14.208-33.922,33.792
				c0,19.457,15.233,33.795,33.922,33.795c18.688,0,33.921-14.338,33.921-33.795C239.922,108.669,224.689,94.461,206.001,94.461
				 M206.001,148.735c-10.241,0-19.073-8.448-19.073-20.481c0-12.161,8.832-20.48,19.073-20.48c10.24,0,19.072,8.32,19.072,20.48
				C225.073,140.287,216.241,148.735,206.001,148.735"/>
			<path clip-path="url(#SVGID_8_)" fill="#FBBC05" d="M280,94.461c-18.689,0-33.922,14.208-33.922,33.792
				c0,19.457,15.233,33.795,33.922,33.795c18.688,0,33.922-14.338,33.922-33.795C313.923,108.669,298.688,94.461,280,94.461
				 M280,148.735c-10.24,0-19.073-8.448-19.073-20.481c0-12.161,8.833-20.48,19.073-20.48c10.24,0,19.072,8.32,19.072,20.48
				C299.073,140.287,290.241,148.735,280,148.735"/>
			<path clip-path="url(#SVGID_8_)" fill="#4285F4" d="M370.831,96.508v5.505h-0.511c-3.328-3.968-9.729-7.552-17.793-7.552
				c-16.897,0-32.386,14.848-32.386,33.921c0,18.944,15.489,33.666,32.386,33.666c8.064,0,14.465-3.584,17.793-7.682h0.511v4.865
				c0,12.928-6.912,19.84-18.048,19.84c-9.088,0-14.721-6.528-17.025-12.032l-12.929,5.376c3.712,8.961,13.569,19.97,29.954,19.97
				c17.409,0,32.129-10.24,32.129-35.201V96.508H370.831z M353.807,148.735c-10.24,0-18.817-8.576-18.817-20.353
				c0-11.904,8.577-20.609,18.817-20.609c10.112,0,18.049,8.705,18.049,20.609C371.855,140.159,363.918,148.735,353.807,148.735"/>
			<rect x="395.152" y="60.667" clip-path="url(#SVGID_8_)" fill="#34A853" width="14.849" height="99.333"/>
			<path clip-path="url(#SVGID_8_)" fill="#EA4335" d="M450.707,148.735c-7.552,0-12.928-3.456-16.384-10.24l45.186-18.688
				l-1.536-3.841c-2.816-7.552-11.393-21.505-28.93-21.505c-17.409,0-31.873,13.697-31.873,33.794
				c0,18.944,14.336,33.793,33.537,33.793c15.489,0,24.45-9.473,28.161-14.977l-11.52-7.68
				C463.507,145.023,458.259,148.735,450.707,148.735 M449.554,107.518c5.889,0,10.881,2.944,12.545,7.168l-30.209,12.545
				C431.505,114.174,442.002,107.518,449.554,107.518"/>
		</g>
	</g>
</g>
</svg>
